<svg xmlns="http://www.w3.org/2000/svg" viewBox="0 0 81.37 29.65"><title>logo</title><g id="Layer_2" data-name="Layer 2"><g id="Layer_1-2" data-name="Layer 1"><path d="M81.37,29.65H0V0H81.37ZM1,28.65H80.37V1H1Z"/><path d="M7.64,12.64a4.45,4.45,0,0,1-1.82-.37A4.91,4.91,0,0,1,3.33,6a4.58,4.58,0,0,1,1-1.53,4.79,4.79,0,0,1,1.49-1A4.29,4.29,0,0,1,7.64,3a4.62,4.62,0,0,1,1.57.25,4.71,4.71,0,0,1,1.37.8.41.41,0,0,1,.13.2.41.41,0,0,1,0,.22.31.31,0,0,1-.15.15.19.19,0,0,1-.12.14.4.4,0,0,1-.22,0,.51.51,0,0,1-.25-.11,3.33,3.33,0,0,0-1-.61,3.79,3.79,0,0,0-1.28-.19,3.42,3.42,0,0,0-1.46.31,4,4,0,0,0-2,2.1,3.79,3.79,0,0,0-.3,1.5,4,4,0,0,0,2.3,3.62,3.57,3.57,0,0,0,1.46.3,3.69,3.69,0,0,0,1.25-.21A4.4,4.4,0,0,0,10,10.91a.37.37,0,0,1,.31-.09.44.44,0,0,1,.28.14.41.41,0,0,1,.12.31.52.52,0,0,1,0,.18.59.59,0,0,1-.1.16,3.74,3.74,0,0,1-1.37.8A5.47,5.47,0,0,1,7.64,12.64Z"/><path d="M14.35,12.52a.44.44,0,0,1-.33-.13.46.46,0,0,1-.14-.34V3.62A.45.45,0,0,1,14,3.29a.42.42,0,0,1,.33-.14.43.43,0,0,1,.33.14.45.45,0,0,1,.14.33v8h4.69a.44.44,0,0,1,.33.13.42.42,0,0,1,.14.32.41.41,0,0,1-.14.31.44.44,0,0,1-.33.13Z"/><path d="M26.17,12.64a5,5,0,0,1-1.92-.36,4.54,4.54,0,0,1-1.52-1,4.62,4.62,0,0,1-1-1.52,5.24,5.24,0,0,1-.35-1.92,5.15,5.15,0,0,1,.35-1.91,4.62,4.62,0,0,1,1-1.52,4.4,4.4,0,0,1,1.52-1A5,5,0,0,1,26.17,3a5,5,0,0,1,1.91.36A4.56,4.56,0,0,1,30.6,5.92,5,5,0,0,1,31,7.83a5,5,0,0,1-.36,1.92,4.47,4.47,0,0,1-1,1.52,4.65,4.65,0,0,1-1.52,1A5,5,0,0,1,26.17,12.64Zm0-.89a4,4,0,0,0,1.53-.29,3.52,3.52,0,0,0,1.23-.83,3.74,3.74,0,0,0,.81-1.25A3.93,3.93,0,0,0,30,7.83a3.91,3.91,0,0,0-.29-1.54A3.65,3.65,0,0,0,28.93,5a3.52,3.52,0,0,0-1.23-.83,3.86,3.86,0,0,0-1.53-.29,3.93,3.93,0,0,0-1.55.29A3.71,3.71,0,0,0,23.39,5a3.65,3.65,0,0,0-.81,1.25,4.26,4.26,0,0,0,0,3.09,3.72,3.72,0,0,0,2,2.08A4.11,4.11,0,0,0,26.17,11.75Z"/><path d="M32.78,4a.41.41,0,0,1-.31-.12.41.41,0,0,1-.12-.3.41.41,0,0,1,.43-.43h6.64a.43.43,0,0,1,.31.12.41.41,0,0,1,.12.31.41.41,0,0,1-.12.3.43.43,0,0,1-.31.12Zm3.31,8.52a.48.48,0,0,1-.47-.47V3.15h.94v8.9a.44.44,0,0,1-.13.33A.46.46,0,0,1,36.09,12.52Z"/><path d="M42.9,12.52a.45.45,0,0,1-.47-.47V3.62a.45.45,0,0,1,.47-.47.44.44,0,0,1,.33.13.45.45,0,0,1,.13.34V7.36h5.86V3.62a.45.45,0,0,1,.47-.47.43.43,0,0,1,.33.13.46.46,0,0,1,.14.34v8.43a.46.46,0,0,1-.14.34.43.43,0,0,1-.33.13.45.45,0,0,1-.47-.47V8.2H43.36v3.85a.45.45,0,0,1-.13.34A.44.44,0,0,1,42.9,12.52Z"/><path d="M54.22,12.52a.43.43,0,0,1-.33-.13.46.46,0,0,1-.14-.34V3.62a.46.46,0,0,1,.14-.34.43.43,0,0,1,.33-.13.45.45,0,0,1,.47.47v8.43a.45.45,0,0,1-.47.47Z"/><path d="M58.76,12.52a.45.45,0,0,1-.47-.47V3.62a.45.45,0,0,1,.47-.47.44.44,0,0,1,.36.17l5.74,7.53V3.62A.45.45,0,0,1,65,3.28a.48.48,0,0,1,.66,0,.42.42,0,0,1,.14.34v8.43a.42.42,0,0,1-.14.34.44.44,0,0,1-.33.13.46.46,0,0,1-.19,0,.31.31,0,0,1-.16-.12L59.23,4.83v7.22a.46.46,0,0,1-.14.34A.44.44,0,0,1,58.76,12.52Z"/><path d="M73.6,12.64a4.41,4.41,0,0,1-1.81-.37,4.6,4.6,0,0,1-1.49-1,5,5,0,0,1-1-1.54,4.81,4.81,0,0,1-.35-1.86,4.77,4.77,0,0,1,1.35-3.39,4.64,4.64,0,0,1,1.48-1A4.35,4.35,0,0,1,73.6,3a4.31,4.31,0,0,1,2.94,1.05.31.31,0,0,1,.13.2.41.41,0,0,1,0,.22.29.29,0,0,1-.14.15.24.24,0,0,1-.12.14.43.43,0,0,1-.23,0,.52.52,0,0,1-.24-.11,3.59,3.59,0,0,0-1-.61,3.89,3.89,0,0,0-1.29-.19,3.37,3.37,0,0,0-1.45.31,3.79,3.79,0,0,0-1.2.85,4.2,4.2,0,0,0-.81,1.25,4,4,0,0,0-.29,1.5,4,4,0,0,0,.29,1.52A4.2,4.2,0,0,0,71,10.6a3.79,3.79,0,0,0,1.2.85,3.52,3.52,0,0,0,1.45.3,3.69,3.69,0,0,0,1.25-.21A4.45,4.45,0,0,0,76,10.91a.35.35,0,0,1,.3-.09.42.42,0,0,1,.28.14.41.41,0,0,1,.12.31.52.52,0,0,1,0,.18.46.46,0,0,1-.11.16,3.66,3.66,0,0,1-1.37.8A5.42,5.42,0,0,1,73.6,12.64Zm3.07-1.37-.91-.19V8.67H73.89a.49.49,0,0,1-.34-.12.41.41,0,0,1,0-.6.53.53,0,0,1,.34-.11h2.32a.43.43,0,0,1,.33.13.42.42,0,0,1,.13.33Z"/><path d="M7.1,26.66a5.25,5.25,0,0,1-1.66-.26,4.12,4.12,0,0,1-1.32-.73,3.24,3.24,0,0,1-.85-1.11.4.4,0,0,1,0-.41.55.55,0,0,1,.36-.26.46.46,0,0,1,.38,0,.68.68,0,0,1,.29.29,2.13,2.13,0,0,0,.62.73,2.92,2.92,0,0,0,1,.5,4,4,0,0,0,1.23.17,3.38,3.38,0,0,0,1.32-.24,2.06,2.06,0,0,0,.9-.71,2,2,0,0,0,.33-1.15A2,2,0,0,0,9,22.05a3.35,3.35,0,0,0-2-.78,4.6,4.6,0,0,1-2.56-1,2.59,2.59,0,0,1-.93-2A2.44,2.44,0,0,1,4,16.76a2.92,2.92,0,0,1,1.25-1,4.56,4.56,0,0,1,1.83-.34,3.88,3.88,0,0,1,1.4.24,3.64,3.64,0,0,1,1.1.65,3.49,3.49,0,0,1,.77.87.58.58,0,0,1,.09.43.55.55,0,0,1-.25.33.58.58,0,0,1-.43,0,.52.52,0,0,1-.32-.26,3,3,0,0,0-.53-.61,2.49,2.49,0,0,0-.76-.46,3.38,3.38,0,0,0-1.08-.18A3.07,3.07,0,0,0,5.31,17a1.56,1.56,0,0,0-.67,1.37,1.57,1.57,0,0,0,.25.87,2,2,0,0,0,.83.69,5.26,5.26,0,0,0,1.57.42,4.57,4.57,0,0,1,2.59,1.08,2.79,2.79,0,0,1,.85,2.13,3.18,3.18,0,0,1-.27,1.34,2.71,2.71,0,0,1-.77,1,3.52,3.52,0,0,1-1.17.61A4.64,4.64,0,0,1,7.1,26.66Z"/><path d="M21.56,26.74a5,5,0,0,1-2.26-.49,3.59,3.59,0,0,1-2.09-3.34V16.13a.5.5,0,0,1,.16-.39.54.54,0,0,1,.93.39v6.78a2.55,2.55,0,0,0,.42,1.45,2.79,2.79,0,0,0,1.15,1,3.85,3.85,0,0,0,1.69.36,3.7,3.7,0,0,0,1.67-.36,2.76,2.76,0,0,0,1.14-1,2.55,2.55,0,0,0,.42-1.45V16.13a.51.51,0,0,1,.54-.54.54.54,0,0,1,.4.15.53.53,0,0,1,.15.39v6.78a3.64,3.64,0,0,1-2.08,3.34A4.86,4.86,0,0,1,21.56,26.74Z"/><path d="M33.42,26.52a.53.53,0,0,1-.39-.15.57.57,0,0,1-.15-.4V16.13a.51.51,0,0,1,.54-.54h2.8a3.72,3.72,0,0,1,1.84.45,3.24,3.24,0,0,1,1.24,1.25,3.73,3.73,0,0,1,.45,1.85A3.64,3.64,0,0,1,39.3,21a3.28,3.28,0,0,1-1.24,1.24,3.72,3.72,0,0,1-1.84.46H34V26a.54.54,0,0,1-.16.4A.53.53,0,0,1,33.42,26.52ZM34,21.61h2.25a2.59,2.59,0,0,0,1.28-.32,2.27,2.27,0,0,0,.87-.87,2.76,2.76,0,0,0,0-2.58A2.3,2.3,0,0,0,37.5,17a2.48,2.48,0,0,0-1.28-.32H34Z"/><path d="M46.19,26.52a.53.53,0,0,1-.39-.15.58.58,0,0,1-.16-.4V16.13a.53.53,0,0,1,.16-.39.53.53,0,0,1,.39-.15H49a3.72,3.72,0,0,1,1.84.45,3.24,3.24,0,0,1,1.24,1.25,3.73,3.73,0,0,1,.45,1.85A3.64,3.64,0,0,1,52.07,21a3.28,3.28,0,0,1-1.24,1.24,3.72,3.72,0,0,1-1.84.46H46.74V26a.54.54,0,0,1-.16.4A.53.53,0,0,1,46.19,26.52Zm.55-4.91H49a2.52,2.52,0,0,0,1.27-.32,2.23,2.23,0,0,0,.88-.87,2.76,2.76,0,0,0,0-2.58,2.26,2.26,0,0,0-.88-.88A2.42,2.42,0,0,0,49,16.64H46.74Z"/><path d="M59,26.52a.56.56,0,0,1-.39-.15.58.58,0,0,1-.16-.4V16.13a.55.55,0,0,1,.55-.54.55.55,0,0,1,.54.54v9.35H65a.52.52,0,0,1,.38.15.49.49,0,0,1,0,.74.52.52,0,0,1-.38.15Z"/><path d="M72.79,26.52a.49.49,0,0,1-.38-.16.53.53,0,0,1-.16-.39v-3.5l-3.81-6a.54.54,0,0,1-.11-.41.57.57,0,0,1,.18-.32.51.51,0,0,1,.35-.12.45.45,0,0,1,.27.07.68.68,0,0,1,.19.19l3.78,6.09h-.59l3.77-6.06a.64.64,0,0,1,.21-.22.54.54,0,0,1,.29-.07.44.44,0,0,1,.33.13.51.51,0,0,1,.15.33.57.57,0,0,1-.1.39l-3.82,6V26a.57.57,0,0,1-.16.39A.53.53,0,0,1,72.79,26.52Z"/></g></g></svg>